<?xml version="1.0" standalone="no"?>
<!DOCTYPE svg PUBLIC "-//W3C//DTD SVG 20010904//EN"
 "http://www.w3.org/TR/2001/REC-SVG-20010904/DTD/svg10.dtd">
<svg version="1.0" xmlns="http://www.w3.org/2000/svg"
 width="98.000000pt" height="98.000000pt" viewBox="0 0 98.000000 98.000000"
 preserveAspectRatio="xMidYMid meet">
<metadata>
Created by potrace 1.14, written by Peter Selinger 2001-2017
</metadata>
<g transform="translate(0.000000,98.000000) scale(0.100000,-0.100000)"
fill="#000000" stroke="none">
<path d="M244 754 c-11 -5 -10 -244 2 -402 l6 -83 36 3 37 3 1 90 c2 121 2
122 17 122 114 2 161 40 160 130 -2 106 -32 132 -160 138 -48 3 -93 2 -99 -1z
m154 -72 c7 -5 15 -25 19 -45 8 -50 -17 -87 -57 -87 l-30 0 0 70 c0 70 0 70
28 70 15 0 33 -4 40 -8z"/>
<path d="M592 740 c-58 -35 -70 -119 -27 -183 14 -20 29 -37 33 -37 15 0 103
-94 108 -116 8 -32 -3 -61 -27 -67 -24 -7 -45 14 -54 53 -7 31 -30 39 -69 24
-53 -20 28 -145 96 -146 64 -1 76 2 107 31 27 25 31 36 31 83 0 69 -16 98 -94
169 -71 65 -85 100 -55 130 25 25 57 10 65 -29 4 -18 13 -28 25 -29 10 -1 19
3 19 8 0 6 4 8 9 5 13 -9 19 14 13 52 -9 65 -110 94 -180 52z"/>
</g>
</svg>
