<svg width="326.8" height="118.301" viewBox="0 0 326.8 118.301" xmlns="http://www.w3.org/2000/svg"><g id="svgGroup" stroke-linecap="round" fill-rule="evenodd" font-size="9pt" stroke="#000000" stroke-width="0.25mm" fill="#000000" style="stroke:#000000;stroke-width:0.25mm;fill:#000000"><path d="M 43 36.201 L 43.7 34.601 Q 44.081 33.647 44.508 33.603 A 0.404 0.404 0 0 1 44.55 33.601 Q 45 33.601 44.95 34.351 Q 44.9 35.101 44.6 36.601 Q 44.009 38.897 43.806 40.678 A 15.281 15.281 0 0 0 43.7 42.401 A 8.087 8.087 0 0 0 43.831 43.93 Q 44.309 46.395 46.52 46.585 A 4.454 4.454 0 0 0 46.9 46.601 A 10.343 10.343 0 0 0 50.026 46.04 Q 54.634 44.558 61.777 39.163 A 103.957 103.957 0 0 0 62.45 38.651 Q 72.8 30.701 81.15 20.651 A 79.729 79.729 0 0 0 84.404 16.481 Q 89.232 9.811 89.486 5.744 A 7.118 7.118 0 0 0 89.5 5.301 A 4.284 4.284 0 0 0 89.112 3.412 Q 88.233 1.6 85.362 1.273 A 12.057 12.057 0 0 0 84 1.201 A 26.782 26.782 0 0 0 77.968 1.95 Q 72.211 3.285 65.1 7.001 A 118.352 118.352 0 0 0 50.275 16.261 A 142.988 142.988 0 0 0 43.1 21.851 Q 32.2 30.901 22.65 41.051 Q 13.1 51.201 7.15 60.951 Q 2.129 69.179 1.345 74.807 A 14.465 14.465 0 0 0 1.2 76.801 A 1.33 1.33 0 0 0 1.231 77.102 Q 1.327 77.514 1.722 77.586 A 1.002 1.002 0 0 0 1.9 77.601 Q 4.632 77.601 13.49 67.259 A 193.351 193.351 0 0 0 14.6 65.951 Q 24.4 54.301 33.45 41.251 A 355.665 355.665 0 0 0 37.058 35.955 Q 42.872 27.238 44.2 23.801 Q 44.5 23.101 44.8 23.101 A 0.794 0.794 0 0 1 45.502 23.537 Q 45.862 24.134 45.896 25.547 A 12.611 12.611 0 0 1 45.9 25.851 A 24.321 24.321 0 0 1 45.882 26.81 Q 45.821 28.369 45.542 29.038 A 1.342 1.342 0 0 1 45.4 29.301 A 21.411 21.411 0 0 1 44.607 31.154 Q 43.661 33.13 42.049 35.742 A 92.135 92.135 0 0 1 41 37.401 A 126.32 126.32 0 0 1 34.318 46.841 Q 30.415 51.885 25.552 57.315 A 261.343 261.343 0 0 1 19.15 64.201 Q 5 78.901 1.6 78.901 A 1.711 1.711 0 0 1 0.872 78.757 Q 0.144 78.418 0.024 77.283 A 4.577 4.577 0 0 1 0 76.801 A 18.126 18.126 0 0 1 0.828 71.689 Q 2.791 65.067 9.4 55.751 Q 18.8 42.501 31.85 30.251 Q 44.9 18.001 59.75 9.001 A 94.847 94.847 0 0 1 67.704 4.65 Q 75.923 0.691 82.251 0.103 A 23.238 23.238 0 0 1 84.4 0.001 A 17.422 17.422 0 0 1 87.361 0.229 Q 92.8 1.172 92.8 6.001 A 11.479 11.479 0 0 1 92.267 9.283 Q 91.365 12.285 88.943 16.062 A 52.896 52.896 0 0 1 87.6 18.051 Q 82.4 25.401 75.1 32.101 Q 67.8 38.801 59.2 43.601 A 51.759 51.759 0 0 1 54.059 46.132 Q 51.53 47.195 49.249 47.76 A 20.216 20.216 0 0 1 44.4 48.401 A 4.101 4.101 0 0 1 42.953 48.166 Q 41 47.432 41 44.401 A 14.686 14.686 0 0 1 41.281 41.654 Q 41.541 40.293 42.042 38.764 A 34.938 34.938 0 0 1 43 36.201 Z M 169 81.701 A 5.907 5.907 0 0 0 171.707 80.98 Q 174.381 79.604 177.4 75.601 A 60.986 60.986 0 0 0 181.559 69.256 Q 183.474 65.923 185.248 62.017 A 103.933 103.933 0 0 0 185.9 60.551 Q 189.8 51.601 193.15 42.101 A 251.706 251.706 0 0 0 195.804 34.18 Q 196.949 30.551 197.837 27.286 A 140.239 140.239 0 0 0 198.4 25.151 A 268.062 268.062 0 0 0 199.046 22.57 Q 200.23 17.723 200.296 16.439 A 2.725 2.725 0 0 0 200.3 16.301 A 15.332 15.332 0 0 0 200.295 15.897 Q 200.269 14.901 200.1 14.901 Q 199.2 14.901 188.7 25.951 Q 180.661 34.411 175.142 40.028 A 506.268 506.268 0 0 1 172 43.201 A 371.58 371.58 0 0 1 166.173 48.894 Q 162.169 52.726 157.5 57.001 A 201.451 201.451 0 0 1 125.058 80.834 A 228.998 228.998 0 0 1 118.3 84.701 A 2.889 2.889 0 0 1 117.625 84.943 A 2.45 2.45 0 0 1 117.1 85.001 A 1.331 1.331 0 0 1 116.889 84.985 Q 116.518 84.925 116.501 84.63 A 0.505 0.505 0 0 1 116.5 84.601 Q 116.5 84.247 117.047 83.971 A 2.743 2.743 0 0 1 117.2 83.901 A 156.454 156.454 0 0 0 137.294 71.501 A 188.149 188.149 0 0 0 146.5 64.401 A 457.409 457.409 0 0 0 156.774 55.678 Q 161.296 51.714 165.106 48.119 A 207.826 207.826 0 0 0 170.6 42.751 Q 177.644 35.592 182.108 30.925 A 450.062 450.062 0 0 0 184.6 28.301 Q 187.9 24.794 192.074 20.343 A 9751.822 9751.822 0 0 0 196.05 16.101 Q 201.141 10.665 204.386 7.222 A 1458.281 1458.281 0 0 1 206.2 5.301 A 3.995 3.995 0 0 1 206.47 5.052 Q 206.748 4.821 206.976 4.742 A 0.683 0.683 0 0 1 207.2 4.701 A 0.366 0.366 0 0 1 207.41 4.758 Q 207.6 4.887 207.6 5.301 A 17.635 17.635 0 0 1 207.496 7.05 Q 207.235 9.609 206.321 14.024 A 187.041 187.041 0 0 1 205.7 16.901 Q 204.245 23.408 201.736 31.528 A 299.578 299.578 0 0 1 200.1 36.651 Q 196.4 47.901 191.8 58.301 Q 187.2 68.701 180.9 75.851 Q 174.6 83.001 168.3 83.001 A 6.335 6.335 0 0 1 163.216 80.532 A 10.427 10.427 0 0 1 162.15 78.951 A 16.223 16.223 0 0 1 160.614 74.938 Q 159.9 72.041 159.9 68.351 Q 159.9 61.801 163.1 56.301 Q 163.9 54.901 164.5 54.901 A 0.555 0.555 0 0 1 164.955 55.136 Q 165.106 55.332 165.197 55.69 A 2.771 2.771 0 0 1 165.2 55.701 Q 164.399 57.063 163.726 59.997 A 45.552 45.552 0 0 0 163.4 61.551 Q 162.6 65.701 162.6 69.901 A 32.502 32.502 0 0 0 162.824 73.906 Q 163.798 81.701 169 81.701 Z M 219.4 67.001 L 219.1 65.801 Q 219.653 65.432 220.841 64.597 A 279.826 279.826 0 0 0 221.05 64.451 Q 222.084 63.723 223.674 62.644 A 398.522 398.522 0 0 1 224.7 61.951 Q 226.982 60.413 229.51 58.136 A 59.895 59.895 0 0 0 229.55 58.101 Q 232.1 55.801 234.35 53.001 Q 236.6 50.201 237.1 49.651 A 1.097 1.097 0 0 1 237.479 49.397 Q 238.092 49.129 239.408 49.103 A 14.761 14.761 0 0 1 239.7 49.101 A 6.661 6.661 0 0 1 240.387 49.133 Q 241.08 49.205 241.433 49.439 A 0.756 0.756 0 0 1 241.8 50.101 A 0.739 0.739 0 0 1 241.755 50.364 A 0.664 0.664 0 0 1 241.6 50.601 A 4.066 4.066 0 0 0 241.496 50.71 Q 241.33 50.888 241.04 51.228 A 51.031 51.031 0 0 0 240.85 51.451 A 154.078 154.078 0 0 0 240.531 51.829 Q 239.988 52.476 239.05 53.601 A 716.273 716.273 0 0 1 237.801 55.095 Q 237.05 55.991 236.2 57.001 L 221.6 75.601 A 244.482 244.482 0 0 0 222.69 74.942 Q 225.022 73.526 230.1 70.401 L 238.9 64.901 L 239 66.201 A 357.842 357.842 0 0 1 232.925 70.007 A 403.882 403.882 0 0 1 230.8 71.301 L 219.2 78.501 Q 203.679 97.902 193.647 108.546 A 164.297 164.297 0 0 1 189.2 113.101 A 72.389 72.389 0 0 1 187.339 114.868 Q 183.581 118.301 182.2 118.301 A 1.687 1.687 0 0 1 180.902 117.737 A 2.197 2.197 0 0 1 180.75 117.551 Q 180.2 116.801 180.2 116.001 Q 180.2 103.401 212.1 81.801 Q 213.9 79.601 216.05 76.851 Q 217.973 74.391 219.296 72.731 A 280.636 280.636 0 0 1 219.6 72.351 A 182.188 182.188 0 0 1 220.768 70.905 Q 221.303 70.25 221.785 69.675 A 100.475 100.475 0 0 1 222.1 69.301 A 24.189 24.189 0 0 0 222.625 68.651 Q 223.897 67.033 226.961 62.84 A 802.258 802.258 0 0 0 227.5 62.101 L 223.9 64.201 A 91.942 91.942 0 0 0 220.503 66.279 A 79.53 79.53 0 0 0 219.4 67.001 Z M 119.1 65.001 L 119.2 66.101 A 234.696 234.696 0 0 1 113.713 69.737 Q 102.694 76.801 99.2 76.801 Q 98.1 76.801 98.1 76.101 A 4.765 4.765 0 0 1 98.432 74.57 Q 99.627 71.229 105.116 63.654 A 179.013 179.013 0 0 1 105.3 63.401 Q 112.5 53.501 121.9 42.401 A 3208.385 3208.385 0 0 0 118.56 42.333 Q 112.415 42.211 110.413 42.201 A 65.708 65.708 0 0 0 110.1 42.201 A 6.607 6.607 0 0 1 109.366 42.164 Q 108.63 42.081 108.264 41.813 A 0.838 0.838 0 0 1 107.9 41.101 A 0.304 0.304 0 0 1 108.075 40.825 Q 108.297 40.701 108.8 40.701 L 123.1 41.001 Q 134.949 27.112 136.516 26.712 A 0.343 0.343 0 0 1 136.6 26.701 A 13.092 13.092 0 0 1 137.448 26.726 Q 138.699 26.807 139.105 27.155 A 0.506 0.506 0 0 1 139.3 27.551 A 1.036 1.036 0 0 1 139.127 27.948 Q 138.09 29.691 130.851 38.053 A 840.326 840.326 0 0 1 128.2 41.101 L 145 41.401 Q 145.916 41.401 146.187 41.574 A 0.209 0.209 0 0 1 146.3 41.751 Q 146.3 42.095 145.913 42.197 A 0.983 0.983 0 0 1 145.9 42.201 A 1.119 1.119 0 0 1 145.614 42.271 Q 144.351 42.467 138.21 42.496 A 479.893 479.893 0 0 1 136 42.501 L 127 42.501 A 3635.715 3635.715 0 0 1 123.969 45.947 Q 119.96 50.499 117.729 52.995 A 457.587 457.587 0 0 1 117.5 53.251 Q 114.5 56.601 109.7 62.201 Q 102.26 70.895 101.039 73.719 A 2.395 2.395 0 0 0 100.8 74.601 A 0.327 0.327 0 0 0 101.01 74.912 Q 101.164 74.985 101.431 74.998 A 2.479 2.479 0 0 0 101.55 75.001 A 1.496 1.496 0 0 0 101.956 74.918 Q 102.896 74.626 105.399 73.298 A 109.23 109.23 0 0 0 106.6 72.651 A 115.621 115.621 0 0 0 108.619 71.522 Q 111.45 69.901 113.1 68.701 L 119.1 65.001 Z M 268.2 65.001 L 268.3 66.101 A 234.696 234.696 0 0 1 262.813 69.737 Q 251.794 76.801 248.3 76.801 Q 247.2 76.801 247.2 76.101 A 4.765 4.765 0 0 1 247.532 74.57 Q 248.727 71.229 254.216 63.654 A 179.013 179.013 0 0 1 254.4 63.401 Q 261.6 53.501 271 42.401 A 3208.385 3208.385 0 0 0 267.66 42.333 Q 261.515 42.211 259.513 42.201 A 65.708 65.708 0 0 0 259.2 42.201 A 6.607 6.607 0 0 1 258.466 42.164 Q 257.73 42.081 257.364 41.813 A 0.838 0.838 0 0 1 257 41.101 A 0.304 0.304 0 0 1 257.175 40.825 Q 257.397 40.701 257.9 40.701 L 272.2 41.001 Q 284.049 27.112 285.616 26.712 A 0.343 0.343 0 0 1 285.7 26.701 A 13.092 13.092 0 0 1 286.548 26.726 Q 287.799 26.807 288.205 27.155 A 0.506 0.506 0 0 1 288.4 27.551 A 1.036 1.036 0 0 1 288.227 27.948 Q 287.19 29.691 279.951 38.053 A 840.326 840.326 0 0 1 277.3 41.101 L 294.1 41.401 Q 295.016 41.401 295.287 41.574 A 0.209 0.209 0 0 1 295.4 41.751 Q 295.4 42.095 295.013 42.197 A 0.983 0.983 0 0 1 295 42.201 A 1.119 1.119 0 0 1 294.714 42.271 Q 293.451 42.467 287.31 42.496 A 479.893 479.893 0 0 1 285.1 42.501 L 276.1 42.501 A 3635.715 3635.715 0 0 1 273.069 45.947 Q 269.06 50.499 266.829 52.995 A 457.587 457.587 0 0 1 266.6 53.251 Q 263.6 56.601 258.8 62.201 Q 251.36 70.895 250.139 73.719 A 2.395 2.395 0 0 0 249.9 74.601 A 0.327 0.327 0 0 0 250.11 74.912 Q 250.264 74.985 250.531 74.998 A 2.479 2.479 0 0 0 250.65 75.001 A 1.496 1.496 0 0 0 251.056 74.918 Q 251.996 74.626 254.499 73.298 A 109.23 109.23 0 0 0 255.7 72.651 A 115.621 115.621 0 0 0 257.719 71.522 Q 260.55 69.901 262.2 68.701 L 268.2 65.001 Z M 59.6 65.801 L 65.8 61.901 L 66.6 62.801 A 439.166 439.166 0 0 0 64.406 64.144 Q 61.715 65.804 59.731 67.09 A 146.499 146.499 0 0 0 59.1 67.501 Q 56.967 68.898 55.592 69.268 A 3.471 3.471 0 0 1 54.7 69.401 Q 52.5 69.401 52.5 67.501 A 4.57 4.57 0 0 1 52.574 66.756 Q 52.839 65.193 54.05 61.951 Q 55.477 58.129 56.099 56.385 A 95.559 95.559 0 0 0 56.2 56.101 L 55.9 55.801 A 0.977 0.977 0 0 0 55.572 55.862 Q 55.306 55.956 55.002 56.199 A 3.318 3.318 0 0 0 55 56.201 A 781.759 781.759 0 0 0 50.923 59.491 Q 44.255 64.913 41.95 67.101 Q 39 69.901 36.25 73.101 A 5040.004 5040.004 0 0 0 35.602 73.855 Q 33.606 76.179 33.286 76.558 A 9.764 9.764 0 0 0 33.25 76.601 A 18.824 18.824 0 0 1 33.141 76.73 Q 32.977 76.924 32.9 77.001 Q 32.6 77.301 30.85 77.301 Q 29.385 77.301 29.146 77.09 A 0.119 0.119 0 0 1 29.1 77.001 A 2.529 2.529 0 0 1 29.24 76.822 Q 29.627 76.356 30.956 74.902 A 334.448 334.448 0 0 1 31.6 74.201 Q 37.2 68.101 41.7 62.501 L 38.8 64.201 A 453.202 453.202 0 0 0 36.656 65.513 Q 33.675 67.351 32.1 68.401 L 31.7 67.301 L 38 63.301 A 41.718 41.718 0 0 0 41.435 60.835 A 32.487 32.487 0 0 0 43.85 58.701 A 42.635 42.635 0 0 0 45.106 57.422 Q 46.214 56.24 46.853 55.331 A 8.804 8.804 0 0 0 47.2 54.801 A 59.808 59.808 0 0 1 47.847 53.746 Q 48.363 52.926 48.8 52.301 Q 49.5 51.301 50.1 51.301 A 1.613 1.613 0 0 1 50.462 51.349 Q 51.034 51.482 51.98 51.99 A 14.947 14.947 0 0 1 52 52.001 A 2.139 2.139 0 0 1 51.906 52.573 Q 51.651 53.471 50.701 55.021 A 29.332 29.332 0 0 1 50.4 55.501 A 57.51 57.51 0 0 1 48.5 58.293 A 46.064 46.064 0 0 1 47.2 60.001 L 45.6 61.901 A 0.601 0.601 0 0 0 45.603 61.967 Q 45.611 62.034 45.635 62.068 A 0.076 0.076 0 0 0 45.7 62.101 Q 46 62.101 46.4 61.751 A 21.901 21.901 0 0 1 46.64 61.546 Q 47.223 61.052 48.929 59.633 A 1757.629 1757.629 0 0 1 49.75 58.951 Q 51.778 57.266 53.452 55.913 A 230.362 230.362 0 0 1 54.9 54.751 A 34.586 34.586 0 0 1 57.742 52.725 A 43.393 43.393 0 0 1 59.95 51.401 A 26.422 26.422 0 0 1 61.201 50.738 Q 63.05 49.827 64.042 49.801 A 2.197 2.197 0 0 1 64.1 49.801 Q 64.849 49.801 65.166 50 A 0.452 0.452 0 0 1 65.4 50.401 Q 65.4 51.117 61.474 53.275 A 74.883 74.883 0 0 1 60.5 53.801 A 1.992 1.992 0 0 0 59.985 54.256 Q 58.925 55.487 57.15 59.551 Q 55.485 63.361 55.052 65.666 A 7.878 7.878 0 0 0 54.9 67.101 A 0.407 0.407 0 0 0 55.159 67.487 Q 55.354 67.58 55.695 67.597 A 3.17 3.17 0 0 0 55.85 67.601 Q 56.8 67.601 59.6 65.801 Z M 292.3 65.801 L 298.5 61.901 L 299.3 62.801 A 439.166 439.166 0 0 0 297.106 64.144 Q 294.415 65.804 292.431 67.09 A 146.499 146.499 0 0 0 291.8 67.501 Q 289.667 68.898 288.292 69.268 A 3.471 3.471 0 0 1 287.4 69.401 Q 285.2 69.401 285.2 67.501 A 4.57 4.57 0 0 1 285.274 66.756 Q 285.539 65.193 286.75 61.951 Q 288.177 58.129 288.799 56.385 A 95.559 95.559 0 0 0 288.9 56.101 L 288.6 55.801 A 0.977 0.977 0 0 0 288.272 55.862 Q 288.006 55.956 287.702 56.199 A 3.318 3.318 0 0 0 287.7 56.201 A 781.759 781.759 0 0 0 283.623 59.491 Q 276.955 64.913 274.65 67.101 Q 271.7 69.901 268.95 73.101 A 5040.004 5040.004 0 0 0 268.302 73.855 Q 266.306 76.179 265.986 76.558 A 9.764 9.764 0 0 0 265.95 76.601 A 18.824 18.824 0 0 1 265.841 76.73 Q 265.677 76.924 265.6 77.001 Q 265.3 77.301 263.55 77.301 Q 262.085 77.301 261.846 77.09 A 0.119 0.119 0 0 1 261.8 77.001 A 2.529 2.529 0 0 1 261.94 76.822 Q 262.327 76.356 263.656 74.902 A 334.448 334.448 0 0 1 264.3 74.201 Q 269.9 68.101 274.4 62.501 L 271.5 64.201 A 453.202 453.202 0 0 0 269.356 65.513 Q 266.375 67.351 264.8 68.401 L 264.4 67.301 L 270.7 63.301 A 41.718 41.718 0 0 0 274.135 60.835 A 32.487 32.487 0 0 0 276.55 58.701 A 42.635 42.635 0 0 0 277.806 57.422 Q 278.914 56.24 279.553 55.331 A 8.804 8.804 0 0 0 279.9 54.801 A 59.808 59.808 0 0 1 280.547 53.746 Q 281.063 52.926 281.5 52.301 Q 282.2 51.301 282.8 51.301 A 1.613 1.613 0 0 1 283.162 51.349 Q 283.734 51.482 284.68 51.99 A 14.947 14.947 0 0 1 284.7 52.001 A 2.139 2.139 0 0 1 284.606 52.573 Q 284.351 53.471 283.401 55.021 A 29.332 29.332 0 0 1 283.1 55.501 A 57.51 57.51 0 0 1 281.2 58.293 A 46.064 46.064 0 0 1 279.9 60.001 L 278.3 61.901 A 0.601 0.601 0 0 0 278.303 61.967 Q 278.311 62.034 278.335 62.068 A 0.076 0.076 0 0 0 278.4 62.101 Q 278.7 62.101 279.1 61.751 A 21.901 21.901 0 0 1 279.34 61.546 Q 279.923 61.052 281.629 59.633 A 1757.629 1757.629 0 0 1 282.45 58.951 Q 284.478 57.266 286.152 55.913 A 230.362 230.362 0 0 1 287.6 54.751 A 34.586 34.586 0 0 1 290.442 52.725 A 43.393 43.393 0 0 1 292.65 51.401 A 26.422 26.422 0 0 1 293.901 50.738 Q 295.75 49.827 296.742 49.801 A 2.197 2.197 0 0 1 296.8 49.801 Q 297.549 49.801 297.866 50 A 0.452 0.452 0 0 1 298.1 50.401 Q 298.1 51.117 294.174 53.275 A 74.883 74.883 0 0 1 293.2 53.801 A 1.992 1.992 0 0 0 292.685 54.256 Q 291.625 55.487 289.85 59.551 Q 288.185 63.361 287.752 65.666 A 7.878 7.878 0 0 0 287.6 67.101 A 0.407 0.407 0 0 0 287.859 67.487 Q 288.054 67.58 288.395 67.597 A 3.17 3.17 0 0 0 288.55 67.601 Q 289.5 67.601 292.3 65.801 Z M 322.2 67.601 L 326.3 64.901 L 326.4 66.201 Q 311.03 76.415 307.143 76.879 A 2.913 2.913 0 0 1 306.8 76.901 Q 306.2 76.901 306.2 76.201 A 7.85 7.85 0 0 1 306.327 74.877 Q 306.65 73.004 307.8 70.201 L 308.3 68.801 Q 308.3 68.613 307.993 68.601 A 1.113 1.113 0 0 0 307.95 68.601 Q 307.6 68.601 302.1 72.601 Q 297.808 75.78 295.885 76.432 A 2.695 2.695 0 0 1 295.05 76.601 Q 293.521 76.601 293.409 74.024 A 9.758 9.758 0 0 1 293.4 73.601 A 16.006 16.006 0 0 1 295.617 65.654 Q 297.019 63.172 299.306 60.728 A 39.842 39.842 0 0 1 302.85 57.401 A 33.818 33.818 0 0 1 323.343 49.559 A 43.181 43.181 0 0 1 325.6 49.501 A 2.104 2.104 0 0 1 326.045 49.543 Q 326.688 49.683 326.784 50.28 A 1.403 1.403 0 0 1 326.8 50.501 Q 326.8 51.501 317.4 62.151 A 233.578 233.578 0 0 0 315.197 64.681 Q 309.349 71.502 308.253 74.052 A 2.565 2.565 0 0 0 308 75.001 A 0.366 0.366 0 0 0 308.058 75.21 Q 308.186 75.401 308.6 75.401 A 1.204 1.204 0 0 0 308.957 75.311 Q 309.838 74.99 312.445 73.518 A 145.927 145.927 0 0 0 313.7 72.801 A 196.417 196.417 0 0 0 320.169 68.901 A 172.626 172.626 0 0 0 322.2 67.601 Z M 72.9 71.101 L 82.7 64.901 L 82.8 66.201 A 199.203 199.203 0 0 1 77.884 69.382 Q 73.267 72.267 70.009 73.857 A 31.45 31.45 0 0 1 67.15 75.101 A 80.261 80.261 0 0 1 65.062 75.841 Q 61.628 77.001 60.3 77.001 A 3.168 3.168 0 0 1 59.075 76.782 Q 57.706 76.211 57.527 74.153 A 7.544 7.544 0 0 1 57.5 73.501 A 14.096 14.096 0 0 1 58.759 67.782 A 20.158 20.158 0 0 1 60.9 64.101 A 30.97 30.97 0 0 1 67.456 57.38 A 28.959 28.959 0 0 1 68.85 56.401 A 69.04 69.04 0 0 1 73.874 53.374 A 54.472 54.472 0 0 1 77.65 51.501 A 38.687 38.687 0 0 1 79.647 50.669 Q 82.45 49.601 84.1 49.601 A 4.776 4.776 0 0 1 84.875 49.658 Q 86.3 49.894 86.3 51.101 Q 86.3 54.536 78.758 59.35 A 60.534 60.534 0 0 1 77.55 60.101 Q 69.329 65.08 63.712 66.882 A 29.475 29.475 0 0 1 63 67.101 A 36.325 36.325 0 0 0 61.532 69.379 Q 60.229 71.596 59.805 73.243 A 5.883 5.883 0 0 0 59.6 74.701 Q 59.6 75.918 60.477 75.995 A 1.401 1.401 0 0 0 60.6 76.001 A 3.631 3.631 0 0 0 61.265 75.922 Q 62.366 75.709 64.527 74.912 A 74.392 74.392 0 0 0 66 74.351 A 67.648 67.648 0 0 0 68.939 73.12 Q 71.213 72.101 72.9 71.101 Z M 94.7 71.101 L 104.5 64.901 L 104.6 66.201 A 199.203 199.203 0 0 1 99.684 69.382 Q 95.067 72.267 91.809 73.857 A 31.45 31.45 0 0 1 88.95 75.101 A 80.261 80.261 0 0 1 86.862 75.841 Q 83.428 77.001 82.1 77.001 A 3.168 3.168 0 0 1 80.875 76.782 Q 79.506 76.211 79.327 74.153 A 7.544 7.544 0 0 1 79.3 73.501 A 14.096 14.096 0 0 1 80.559 67.782 A 20.158 20.158 0 0 1 82.7 64.101 A 30.97 30.97 0 0 1 89.256 57.38 A 28.959 28.959 0 0 1 90.65 56.401 A 69.04 69.04 0 0 1 95.674 53.374 A 54.472 54.472 0 0 1 99.45 51.501 A 38.687 38.687 0 0 1 101.447 50.669 Q 104.25 49.601 105.9 49.601 A 4.776 4.776 0 0 1 106.675 49.658 Q 108.1 49.894 108.1 51.101 Q 108.1 54.536 100.558 59.35 A 60.534 60.534 0 0 1 99.35 60.101 Q 91.129 65.08 85.512 66.882 A 29.475 29.475 0 0 1 84.8 67.101 A 36.325 36.325 0 0 0 83.332 69.379 Q 82.029 71.596 81.605 73.243 A 5.883 5.883 0 0 0 81.4 74.701 Q 81.4 75.918 82.277 75.995 A 1.401 1.401 0 0 0 82.4 76.001 A 3.631 3.631 0 0 0 83.065 75.922 Q 84.166 75.709 86.327 74.912 A 74.392 74.392 0 0 0 87.8 74.351 A 67.648 67.648 0 0 0 90.739 73.12 Q 93.013 72.101 94.7 71.101 Z M 255.5 49.201 L 253.2 49.001 A 1.663 1.663 0 0 0 252.308 49.268 Q 252.064 49.42 251.83 49.66 A 3.502 3.502 0 0 0 251.7 49.801 Q 244.9 56.701 238.85 64.851 A 138.143 138.143 0 0 0 236.794 67.689 Q 232.953 73.149 232.806 74.823 A 1.458 1.458 0 0 0 232.8 74.951 A 4.74 4.74 0 0 0 232.842 75.613 Q 232.95 76.375 233.336 76.686 A 1.024 1.024 0 0 0 234 76.901 A 3.727 3.727 0 0 0 234.894 76.765 Q 236.71 76.3 240.5 74.251 A 130.186 130.186 0 0 0 246.313 70.919 A 107.622 107.622 0 0 0 249.5 68.901 L 253.6 66.201 L 253.5 64.901 A 627.745 627.745 0 0 1 249.698 67.385 Q 237.302 75.418 235.633 75.5 A 0.679 0.679 0 0 1 235.6 75.501 A 0.917 0.917 0 0 1 235.418 75.484 Q 235.136 75.427 235.104 75.17 A 0.56 0.56 0 0 1 235.1 75.101 A 9.727 9.727 0 0 1 235.821 73.821 Q 237.774 70.793 243.95 63.701 A 583.009 583.009 0 0 1 247.591 59.557 Q 252.577 53.94 255.554 50.947 A 81.103 81.103 0 0 1 255.7 50.801 Q 256.244 50.076 256.295 49.72 A 0.491 0.491 0 0 0 256.3 49.651 A 0.298 0.298 0 0 0 256.169 49.408 Q 255.977 49.261 255.505 49.201 A 4.009 4.009 0 0 0 255.5 49.201 Z M 220.8 64.801 L 221.3 65.801 Q 214.928 70.082 211.629 70.101 A 5.102 5.102 0 0 1 211.6 70.101 A 5.362 5.362 0 0 1 210.924 70.061 Q 210.131 69.96 209.7 69.601 A 38.976 38.976 0 0 1 202.569 74.282 A 36.012 36.012 0 0 1 201.5 74.801 Q 197.2 76.801 195.25 76.801 A 1.635 1.635 0 0 1 193.69 75.884 Q 193.331 75.202 193.303 74.013 A 8.742 8.742 0 0 1 193.3 73.801 A 14.581 14.581 0 0 1 195.169 66.839 Q 196.38 64.588 198.374 62.342 A 37.483 37.483 0 0 1 201.95 58.851 Q 208.737 53.005 213.708 51.746 A 10.566 10.566 0 0 1 216.3 51.401 A 4.567 4.567 0 0 1 217.357 51.512 Q 219.1 51.928 219.1 53.901 A 14.802 14.802 0 0 1 217.346 60.723 Q 216.19 62.971 214.272 65.219 A 35.435 35.435 0 0 1 211.5 68.101 A 3.779 3.779 0 0 0 212.681 68.301 A 3.602 3.602 0 0 0 212.7 68.301 A 6.624 6.624 0 0 0 214.472 68.024 Q 216.164 67.549 218.439 66.257 A 41.451 41.451 0 0 0 220.8 64.801 Z M 182 115.301 A 2.352 2.352 0 0 0 182.036 115.735 Q 182.173 116.457 182.82 116.498 A 1.262 1.262 0 0 0 182.9 116.501 A 1.752 1.752 0 0 0 183.664 116.012 Q 187.037 113.087 203.426 92.677 A 2105.134 2105.134 0 0 0 209.4 85.201 A 212.069 212.069 0 0 0 200.088 92.261 Q 182 106.851 182 115.301 Z M 310.4 65.001 A 12.483 12.483 0 0 0 311.297 64.226 Q 313.164 62.483 316.966 58.139 A 245.481 245.481 0 0 0 317 58.101 A 156.651 156.651 0 0 0 318.148 56.774 Q 321.9 52.388 321.9 51.601 Q 321.9 51.201 321.1 51.201 Q 316.5 51.201 310.4 55.451 A 49.2 49.2 0 0 0 302.144 62.633 A 44.267 44.267 0 0 0 300.05 65.101 A 36.333 36.333 0 0 0 298.191 67.669 Q 295.8 71.326 295.8 73.801 A 0.864 0.864 0 0 0 295.83 74.038 Q 295.934 74.401 296.4 74.401 Q 297 74.401 298.35 73.651 A 26.537 26.537 0 0 0 299.349 73.064 Q 300.37 72.437 301.65 71.551 A 379.203 379.203 0 0 0 303.035 70.587 Q 303.58 70.206 304.071 69.86 A 201.522 201.522 0 0 0 305 69.201 A 465.364 465.364 0 0 0 306.652 67.956 Q 309.913 65.488 310.4 65.001 Z M 208.7 67.201 L 208.7 66.701 Q 208.7 63.88 211.226 59.858 A 32.346 32.346 0 0 1 211.75 59.051 A 35.378 35.378 0 0 1 213.332 56.863 Q 215.464 54.155 217.3 53.201 A 1.004 1.004 0 0 0 216.752 52.922 A 1.432 1.432 0 0 0 216.5 52.901 A 5.458 5.458 0 0 0 214.423 53.399 Q 211.378 54.685 206.438 59.29 A 94.907 94.907 0 0 0 204.25 61.401 A 68.076 68.076 0 0 0 200.919 64.937 Q 195.7 70.929 195.7 74.601 Q 195.7 75.201 196.4 75.201 Q 200.2 75.201 208.7 67.201 Z M 82.7 51.101 A 0.315 0.315 0 0 0 82.672 50.962 Q 82.608 50.829 82.397 50.806 A 0.875 0.875 0 0 0 82.3 50.801 A 4.909 4.909 0 0 0 80.708 51.113 Q 78.38 51.925 74.703 54.85 A 58.762 58.762 0 0 0 73.9 55.501 A 60.122 60.122 0 0 0 64.132 65.626 A 56.389 56.389 0 0 0 64 65.801 Q 68.78 64.271 75.249 59.087 A 78.912 78.912 0 0 0 75.85 58.601 A 82.49 82.49 0 0 0 78.178 56.631 Q 82.598 52.734 82.698 51.172 A 1.114 1.114 0 0 0 82.7 51.101 Z M 104.5 51.101 A 0.315 0.315 0 0 0 104.472 50.962 Q 104.408 50.829 104.197 50.806 A 0.875 0.875 0 0 0 104.1 50.801 A 4.909 4.909 0 0 0 102.508 51.113 Q 100.18 51.925 96.503 54.85 A 58.762 58.762 0 0 0 95.7 55.501 A 60.122 60.122 0 0 0 85.932 65.626 A 56.389 56.389 0 0 0 85.8 65.801 Q 90.58 64.271 97.049 59.087 A 78.912 78.912 0 0 0 97.65 58.601 A 82.49 82.49 0 0 0 99.978 56.631 Q 104.398 52.734 104.498 51.172 A 1.114 1.114 0 0 0 104.5 51.101 Z M 217.7 54.301 L 217.7 54.201 A 6.093 6.093 0 0 0 216.477 55.037 Q 215.328 56.022 214.061 57.817 A 30.088 30.088 0 0 0 213.3 58.951 A 28.667 28.667 0 0 0 211.995 61.192 Q 210.775 63.544 210.5 65.401 A 64.205 64.205 0 0 0 213.283 62.366 Q 217.213 57.768 217.646 54.967 A 4.363 4.363 0 0 0 217.7 54.301 Z M 259.748 43.429 A 2.702 2.702 0 0 0 260.4 43.501 A 3.685 3.685 0 0 0 262.502 42.833 A 5.535 5.535 0 0 0 263.5 41.951 A 15.062 15.062 0 0 0 263.692 41.734 Q 264.555 40.741 264.801 40.079 A 1.388 1.388 0 0 0 264.9 39.601 Q 264.9 38.801 264.35 38.201 Q 263.98 37.797 263.385 37.665 A 2.929 2.929 0 0 0 262.75 37.601 Q 261.7 37.601 260.2 39.001 A 6.984 6.984 0 0 0 259.954 39.242 Q 259.493 39.717 259.201 40.209 A 3.375 3.375 0 0 0 258.7 41.951 A 2.27 2.27 0 0 0 258.738 42.377 Q 258.898 43.217 259.748 43.429 Z M 243.648 43.429 A 2.702 2.702 0 0 0 244.3 43.501 A 3.685 3.685 0 0 0 246.402 42.833 A 5.535 5.535 0 0 0 247.4 41.951 A 15.062 15.062 0 0 0 247.592 41.734 Q 248.455 40.741 248.701 40.079 A 1.388 1.388 0 0 0 248.8 39.601 Q 248.8 38.801 248.25 38.201 Q 247.88 37.797 247.285 37.665 A 2.929 2.929 0 0 0 246.65 37.601 Q 245.6 37.601 244.1 39.001 A 6.984 6.984 0 0 0 243.854 39.242 Q 243.393 39.717 243.101 40.209 A 3.375 3.375 0 0 0 242.6 41.951 A 2.27 2.27 0 0 0 242.638 42.377 Q 242.798 43.217 243.648 43.429 Z" vector-effect="non-scaling-stroke"/></g></svg>